<svg  xmlns="http://www.w3.org/2000/svg" xmlns:xlink="http://www.w3.org/1999/xlink"  viewBox="-47.266666412353516,-1034.138671875,1864.4024658203125,1253"><g fill="none" stroke="#555" stroke-opacity="0.4" stroke-width="1.5"><path d="
        M281.7142857142857,-303.05910738781097
        C140.85714285714286,-303.05910738781097
         140.85714285714286,0
         0,0
      "></path><path d="
        M563.4285714285714,90.29774152459353
        C140.85714285714286,90.29774152459353
         140.85714285714286,0
         0,0
      "></path><path d="
        M1126.857142857143,212.76136586321783
        C140.85714285714286,212.76136586321783
         140.85714285714286,0
         0,0
      "></path><path d="
        M563.4285714285714,-594.6228933960414
        C422.57142857142856,-594.6228933960414
         422.57142857142856,-303.05910738781097
         281.7142857142857,-303.05910738781097
      "></path><path d="
        M1126.857142857143,-377.23863413678214
        C422.57142857142856,-377.23863413678214
         422.57142857142856,-303.05910738781097
         281.7142857142857,-303.05910738781097
      "></path><path d="
        M1408.5714285714287,-337.23863413678214
        C422.57142857142856,-337.23863413678214
         422.57142857142856,-303.05910738781097
         281.7142857142857,-303.05910738781097
      "></path><path d="
        M1408.5714285714287,-282.23863413678214
        C422.57142857142856,-282.23863413678214
         422.57142857142856,-303.05910738781097
         281.7142857142857,-303.05910738781097
      "></path><path d="
        M1690.2857142857142,-247.23863413678217
        C422.57142857142856,-247.23863413678217
         422.57142857142856,-303.05910738781097
         281.7142857142857,-303.05910738781097
      "></path><path d="
        M1690.2857142857142,-237.23863413678217
        C422.57142857142856,-237.23863413678217
         422.57142857142856,-303.05910738781097
         281.7142857142857,-303.05910738781097
      "></path><path d="
        M1690.2857142857142,-227.23863413678217
        C422.57142857142856,-227.23863413678217
         422.57142857142856,-303.05910738781097
         281.7142857142857,-303.05910738781097
      "></path><path d="
        M1690.2857142857142,-217.23863413678217
        C422.57142857142856,-217.23863413678217
         422.57142857142856,-303.05910738781097
         281.7142857142857,-303.05910738781097
      "></path><path d="
        M1690.2857142857142,-207.23863413678217
        C422.57142857142856,-207.23863413678217
         422.57142857142856,-303.05910738781097
         281.7142857142857,-303.05910738781097
      "></path><path d="
        M845.1428571428571,-170.57196747011545
        C704.2857142857143,-170.57196747011545
         704.2857142857143,90.29774152459353
         563.4285714285714,90.29774152459353
      "></path><path d="
        M845.1428571428571,-65.36363413678217
        C704.2857142857143,-65.36363413678217
         704.2857142857143,90.29774152459353
         563.4285714285714,90.29774152459353
      "></path><path d="
        M845.1428571428571,57.04708014893214
        C704.2857142857143,57.04708014893214
         704.2857142857143,90.29774152459353
         563.4285714285714,90.29774152459353
      "></path><path d="
        M1408.5714285714287,127.76136586321783
        C704.2857142857143,127.76136586321783
         704.2857142857143,90.29774152459353
         563.4285714285714,90.29774152459353
      "></path><path d="
        M1690.2857142857142,152.76136586321783
        C704.2857142857143,152.76136586321783
         704.2857142857143,90.29774152459353
         563.4285714285714,90.29774152459353
      "></path><path d="
        M1690.2857142857142,162.76136586321783
        C704.2857142857143,162.76136586321783
         704.2857142857143,90.29774152459353
         563.4285714285714,90.29774152459353
      "></path><path d="
        M1690.2857142857142,172.76136586321783
        C704.2857142857143,172.76136586321783
         704.2857142857143,90.29774152459353
         563.4285714285714,90.29774152459353
      "></path><path d="
        M1690.2857142857142,182.76136586321783
        C704.2857142857143,182.76136586321783
         704.2857142857143,90.29774152459353
         563.4285714285714,90.29774152459353
      "></path><path d="
        M1690.2857142857142,192.76136586321783
        C704.2857142857143,192.76136586321783
         704.2857142857143,90.29774152459353
         563.4285714285714,90.29774152459353
      "></path><path d="
        M1408.5714285714287,212.76136586321783
        C1267.7142857142858,212.76136586321783
         1267.7142857142858,212.76136586321783
         1126.857142857143,212.76136586321783
      "></path><path d="
        M845.1428571428571,-968.0719674701154
        C704.2857142857143,-968.0719674701154
         704.2857142857143,-594.6228933960414
         563.4285714285714,-594.6228933960414
      "></path><path d="
        M1126.857142857143,-902.2386341367821
        C704.2857142857143,-902.2386341367821
         704.2857142857143,-594.6228933960414
         563.4285714285714,-594.6228933960414
      "></path><path d="
        M1126.857142857143,-867.2386341367821
        C704.2857142857143,-867.2386341367821
         704.2857142857143,-594.6228933960414
         563.4285714285714,-594.6228933960414
      "></path><path d="
        M1408.5714285714287,-847.2386341367821
        C704.2857142857143,-847.2386341367821
         704.2857142857143,-594.6228933960414
         563.4285714285714,-594.6228933960414
      "></path><path d="
        M1408.5714285714287,-792.2386341367821
        C704.2857142857143,-792.2386341367821
         704.2857142857143,-594.6228933960414
         563.4285714285714,-594.6228933960414
      "></path><path d="
        M1408.5714285714287,-732.2386341367821
        C704.2857142857143,-732.2386341367821
         704.2857142857143,-594.6228933960414
         563.4285714285714,-594.6228933960414
      "></path><path d="
        M1408.5714285714287,-707.2386341367821
        C704.2857142857143,-707.2386341367821
         704.2857142857143,-594.6228933960414
         563.4285714285714,-594.6228933960414
      "></path><path d="
        M1408.5714285714287,-687.2386341367821
        C704.2857142857143,-687.2386341367821
         704.2857142857143,-594.6228933960414
         563.4285714285714,-594.6228933960414
      "></path><path d="
        M1690.2857142857142,-667.2386341367821
        C704.2857142857143,-667.2386341367821
         704.2857142857143,-594.6228933960414
         563.4285714285714,-594.6228933960414
      "></path><path d="
        M1690.2857142857142,-657.2386341367821
        C704.2857142857143,-657.2386341367821
         704.2857142857143,-594.6228933960414
         563.4285714285714,-594.6228933960414
      "></path><path d="
        M1690.2857142857142,-647.2386341367821
        C704.2857142857143,-647.2386341367821
         704.2857142857143,-594.6228933960414
         563.4285714285714,-594.6228933960414
      "></path><path d="
        M1690.2857142857142,-637.2386341367821
        C704.2857142857143,-637.2386341367821
         704.2857142857143,-594.6228933960414
         563.4285714285714,-594.6228933960414
      "></path><path d="
        M1690.2857142857142,-627.2386341367821
        C704.2857142857143,-627.2386341367821
         704.2857142857143,-594.6228933960414
         563.4285714285714,-594.6228933960414
      "></path><path d="
        M1690.2857142857142,-617.2386341367821
        C704.2857142857143,-617.2386341367821
         704.2857142857143,-594.6228933960414
         563.4285714285714,-594.6228933960414
      "></path><path d="
        M1690.2857142857142,-607.2386341367821
        C704.2857142857143,-607.2386341367821
         704.2857142857143,-594.6228933960414
         563.4285714285714,-594.6228933960414
      "></path><path d="
        M1690.2857142857142,-597.2386341367821
        C704.2857142857143,-597.2386341367821
         704.2857142857143,-594.6228933960414
         563.4285714285714,-594.6228933960414
      "></path><path d="
        M1690.2857142857142,-587.2386341367821
        C704.2857142857143,-587.2386341367821
         704.2857142857143,-594.6228933960414
         563.4285714285714,-594.6228933960414
      "></path><path d="
        M1690.2857142857142,-577.2386341367821
        C704.2857142857143,-577.2386341367821
         704.2857142857143,-594.6228933960414
         563.4285714285714,-594.6228933960414
      "></path><path d="
        M1690.2857142857142,-567.2386341367821
        C704.2857142857143,-567.2386341367821
         704.2857142857143,-594.6228933960414
         563.4285714285714,-594.6228933960414
      "></path><path d="
        M1690.2857142857142,-557.2386341367821
        C704.2857142857143,-557.2386341367821
         704.2857142857143,-594.6228933960414
         563.4285714285714,-594.6228933960414
      "></path><path d="
        M1690.2857142857142,-547.2386341367821
        C704.2857142857143,-547.2386341367821
         704.2857142857143,-594.6228933960414
         563.4285714285714,-594.6228933960414
      "></path><path d="
        M1690.2857142857142,-537.2386341367821
        C704.2857142857143,-537.2386341367821
         704.2857142857143,-594.6228933960414
         563.4285714285714,-594.6228933960414
      "></path><path d="
        M1690.2857142857142,-527.2386341367821
        C704.2857142857143,-527.2386341367821
         704.2857142857143,-594.6228933960414
         563.4285714285714,-594.6228933960414
      "></path><path d="
        M1690.2857142857142,-517.2386341367821
        C704.2857142857143,-517.2386341367821
         704.2857142857143,-594.6228933960414
         563.4285714285714,-594.6228933960414
      "></path><path d="
        M1690.2857142857142,-507.23863413678214
        C704.2857142857143,-507.23863413678214
         704.2857142857143,-594.6228933960414
         563.4285714285714,-594.6228933960414
      "></path><path d="
        M1690.2857142857142,-497.23863413678214
        C704.2857142857143,-497.23863413678214
         704.2857142857143,-594.6228933960414
         563.4285714285714,-594.6228933960414
      "></path><path d="
        M1690.2857142857142,-487.23863413678214
        C704.2857142857143,-487.23863413678214
         704.2857142857143,-594.6228933960414
         563.4285714285714,-594.6228933960414
      "></path><path d="
        M1690.2857142857142,-477.23863413678214
        C704.2857142857143,-477.23863413678214
         704.2857142857143,-594.6228933960414
         563.4285714285714,-594.6228933960414
      "></path><path d="
        M1690.2857142857142,-467.23863413678214
        C704.2857142857143,-467.23863413678214
         704.2857142857143,-594.6228933960414
         563.4285714285714,-594.6228933960414
      "></path><path d="
        M1690.2857142857142,-457.23863413678214
        C704.2857142857143,-457.23863413678214
         704.2857142857143,-594.6228933960414
         563.4285714285714,-594.6228933960414
      "></path><path d="
        M1690.2857142857142,-447.23863413678214
        C704.2857142857143,-447.23863413678214
         704.2857142857143,-594.6228933960414
         563.4285714285714,-594.6228933960414
      "></path><path d="
        M1690.2857142857142,-437.23863413678214
        C704.2857142857143,-437.23863413678214
         704.2857142857143,-594.6228933960414
         563.4285714285714,-594.6228933960414
      "></path><path d="
        M1690.2857142857142,-427.23863413678214
        C704.2857142857143,-427.23863413678214
         704.2857142857143,-594.6228933960414
         563.4285714285714,-594.6228933960414
      "></path><path d="
        M1690.2857142857142,-417.23863413678214
        C704.2857142857143,-417.23863413678214
         704.2857142857143,-594.6228933960414
         563.4285714285714,-594.6228933960414
      "></path><path d="
        M1690.2857142857142,-407.23863413678214
        C704.2857142857143,-407.23863413678214
         704.2857142857143,-594.6228933960414
         563.4285714285714,-594.6228933960414
      "></path><path d="
        M1690.2857142857142,-397.23863413678214
        C704.2857142857143,-397.23863413678214
         704.2857142857143,-594.6228933960414
         563.4285714285714,-594.6228933960414
      "></path><path d="
        M1408.5714285714287,-377.23863413678214
        C1267.7142857142858,-377.23863413678214
         1267.7142857142858,-377.23863413678214
         1126.857142857143,-377.23863413678214
      "></path><path d="
        M1690.2857142857142,-357.23863413678214
        C1549.4285714285716,-357.23863413678214
         1549.4285714285716,-337.23863413678214
         1408.5714285714287,-337.23863413678214
      "></path><path d="
        M1690.2857142857142,-347.23863413678214
        C1549.4285714285716,-347.23863413678214
         1549.4285714285716,-337.23863413678214
         1408.5714285714287,-337.23863413678214
      "></path><path d="
        M1690.2857142857142,-337.23863413678214
        C1549.4285714285716,-337.23863413678214
         1549.4285714285716,-337.23863413678214
         1408.5714285714287,-337.23863413678214
      "></path><path d="
        M1690.2857142857142,-327.23863413678214
        C1549.4285714285716,-327.23863413678214
         1549.4285714285716,-337.23863413678214
         1408.5714285714287,-337.23863413678214
      "></path><path d="
        M1690.2857142857142,-317.23863413678214
        C1549.4285714285716,-317.23863413678214
         1549.4285714285716,-337.23863413678214
         1408.5714285714287,-337.23863413678214
      "></path><path d="
        M1690.2857142857142,-297.23863413678214
        C1549.4285714285716,-297.23863413678214
         1549.4285714285716,-282.23863413678214
         1408.5714285714287,-282.23863413678214
      "></path><path d="
        M1690.2857142857142,-287.23863413678214
        C1549.4285714285716,-287.23863413678214
         1549.4285714285716,-282.23863413678214
         1408.5714285714287,-282.23863413678214
      "></path><path d="
        M1690.2857142857142,-277.23863413678214
        C1549.4285714285716,-277.23863413678214
         1549.4285714285716,-282.23863413678214
         1408.5714285714287,-282.23863413678214
      "></path><path d="
        M1690.2857142857142,-267.23863413678214
        C1549.4285714285716,-267.23863413678214
         1549.4285714285716,-282.23863413678214
         1408.5714285714287,-282.23863413678214
      "></path><path d="
        M1126.857142857143,-187.23863413678217
        C986,-187.23863413678217
         986,-170.57196747011545
         845.1428571428571,-170.57196747011545
      "></path><path d="
        M1690.2857142857142,-167.23863413678217
        C986,-167.23863413678217
         986,-170.57196747011545
         845.1428571428571,-170.57196747011545
      "></path><path d="
        M1690.2857142857142,-157.23863413678217
        C986,-157.23863413678217
         986,-170.57196747011545
         845.1428571428571,-170.57196747011545
      "></path><path d="
        M1126.857142857143,-109.73863413678217
        C986,-109.73863413678217
         986,-65.36363413678217
         845.1428571428571,-65.36363413678217
      "></path><path d="
        M1408.5714285714287,-67.23863413678217
        C986,-67.23863413678217
         986,-65.36363413678217
         845.1428571428571,-65.36363413678217
      "></path><path d="
        M1690.2857142857142,-47.23863413678217
        C986,-47.23863413678217
         986,-65.36363413678217
         845.1428571428571,-65.36363413678217
      "></path><path d="
        M1690.2857142857142,-37.23863413678217
        C986,-37.23863413678217
         986,-65.36363413678217
         845.1428571428571,-65.36363413678217
      "></path><path d="
        M1126.857142857143,-7.238634136782167
        C986,-7.238634136782167
         986,57.04708014893214
         845.1428571428571,57.04708014893214
      "></path><path d="
        M1408.5714285714287,22.761365863217833
        C986,22.761365863217833
         986,57.04708014893214
         845.1428571428571,57.04708014893214
      "></path><path d="
        M1408.5714285714287,42.76136586321783
        C986,42.76136586321783
         986,57.04708014893214
         845.1428571428571,57.04708014893214
      "></path><path d="
        M1408.5714285714287,62.76136586321783
        C986,62.76136586321783
         986,57.04708014893214
         845.1428571428571,57.04708014893214
      "></path><path d="
        M1690.2857142857142,82.76136586321783
        C986,82.76136586321783
         986,57.04708014893214
         845.1428571428571,57.04708014893214
      "></path><path d="
        M1690.2857142857142,92.76136586321783
        C986,92.76136586321783
         986,57.04708014893214
         845.1428571428571,57.04708014893214
      "></path><path d="
        M1690.2857142857142,102.76136586321783
        C986,102.76136586321783
         986,57.04708014893214
         845.1428571428571,57.04708014893214
      "></path><path d="
        M1690.2857142857142,122.76136586321783
        C1549.4285714285716,122.76136586321783
         1549.4285714285716,127.76136586321783
         1408.5714285714287,127.76136586321783
      "></path><path d="
        M1690.2857142857142,132.76136586321783
        C1549.4285714285716,132.76136586321783
         1549.4285714285716,127.76136586321783
         1408.5714285714287,127.76136586321783
      "></path><path d="
        M1690.2857142857142,212.76136586321783
        C1549.4285714285716,212.76136586321783
         1549.4285714285716,212.76136586321783
         1408.5714285714287,212.76136586321783
      "></path><path d="
        M1126.857142857143,-999.7386341367821
        C986,-999.7386341367821
         986,-968.0719674701154
         845.1428571428571,-968.0719674701154
      "></path><path d="
        M1690.2857142857142,-957.2386341367821
        C986,-957.2386341367821
         986,-968.0719674701154
         845.1428571428571,-968.0719674701154
      "></path><path d="
        M1690.2857142857142,-947.2386341367821
        C986,-947.2386341367821
         986,-968.0719674701154
         845.1428571428571,-968.0719674701154
      "></path><path d="
        M1408.5714285714287,-922.2386341367821
        C1267.7142857142858,-922.2386341367821
         1267.7142857142858,-902.2386341367821
         1126.857142857143,-902.2386341367821
      "></path><path d="
        M1690.2857142857142,-897.2386341367821
        C1267.7142857142858,-897.2386341367821
         1267.7142857142858,-902.2386341367821
         1126.857142857143,-902.2386341367821
      "></path><path d="
        M1690.2857142857142,-887.2386341367821
        C1267.7142857142858,-887.2386341367821
         1267.7142857142858,-902.2386341367821
         1126.857142857143,-902.2386341367821
      "></path><path d="
        M1408.5714285714287,-867.2386341367821
        C1267.7142857142858,-867.2386341367821
         1267.7142857142858,-867.2386341367821
         1126.857142857143,-867.2386341367821
      "></path><path d="
        M1690.2857142857142,-847.2386341367821
        C1549.4285714285716,-847.2386341367821
         1549.4285714285716,-847.2386341367821
         1408.5714285714287,-847.2386341367821
      "></path><path d="
        M1690.2857142857142,-827.2386341367821
        C1549.4285714285716,-827.2386341367821
         1549.4285714285716,-792.2386341367821
         1408.5714285714287,-792.2386341367821
      "></path><path d="
        M1690.2857142857142,-817.2386341367821
        C1549.4285714285716,-817.2386341367821
         1549.4285714285716,-792.2386341367821
         1408.5714285714287,-792.2386341367821
      "></path><path d="
        M1690.2857142857142,-807.2386341367821
        C1549.4285714285716,-807.2386341367821
         1549.4285714285716,-792.2386341367821
         1408.5714285714287,-792.2386341367821
      "></path><path d="
        M1690.2857142857142,-797.2386341367821
        C1549.4285714285716,-797.2386341367821
         1549.4285714285716,-792.2386341367821
         1408.5714285714287,-792.2386341367821
      "></path><path d="
        M1690.2857142857142,-787.2386341367821
        C1549.4285714285716,-787.2386341367821
         1549.4285714285716,-792.2386341367821
         1408.5714285714287,-792.2386341367821
      "></path><path d="
        M1690.2857142857142,-777.2386341367821
        C1549.4285714285716,-777.2386341367821
         1549.4285714285716,-792.2386341367821
         1408.5714285714287,-792.2386341367821
      "></path><path d="
        M1690.2857142857142,-767.2386341367821
        C1549.4285714285716,-767.2386341367821
         1549.4285714285716,-792.2386341367821
         1408.5714285714287,-792.2386341367821
      "></path><path d="
        M1690.2857142857142,-757.2386341367821
        C1549.4285714285716,-757.2386341367821
         1549.4285714285716,-792.2386341367821
         1408.5714285714287,-792.2386341367821
      "></path><path d="
        M1690.2857142857142,-737.2386341367821
        C1549.4285714285716,-737.2386341367821
         1549.4285714285716,-732.2386341367821
         1408.5714285714287,-732.2386341367821
      "></path><path d="
        M1690.2857142857142,-727.2386341367821
        C1549.4285714285716,-727.2386341367821
         1549.4285714285716,-732.2386341367821
         1408.5714285714287,-732.2386341367821
      "></path><path d="
        M1690.2857142857142,-707.2386341367821
        C1549.4285714285716,-707.2386341367821
         1549.4285714285716,-707.2386341367821
         1408.5714285714287,-707.2386341367821
      "></path><path d="
        M1690.2857142857142,-687.2386341367821
        C1549.4285714285716,-687.2386341367821
         1549.4285714285716,-687.2386341367821
         1408.5714285714287,-687.2386341367821
      "></path><path d="
        M1690.2857142857142,-377.23863413678214
        C1549.4285714285716,-377.23863413678214
         1549.4285714285716,-377.23863413678214
         1408.5714285714287,-377.23863413678214
      "></path><path d="
        M1408.5714285714287,-187.23863413678217
        C1267.7142857142858,-187.23863413678217
         1267.7142857142858,-187.23863413678217
         1126.857142857143,-187.23863413678217
      "></path><path d="
        M1408.5714285714287,-137.23863413678217
        C1267.7142857142858,-137.23863413678217
         1267.7142857142858,-109.73863413678217
         1126.857142857143,-109.73863413678217
      "></path><path d="
        M1408.5714285714287,-117.23863413678217
        C1267.7142857142858,-117.23863413678217
         1267.7142857142858,-109.73863413678217
         1126.857142857143,-109.73863413678217
      "></path><path d="
        M1690.2857142857142,-97.23863413678217
        C1267.7142857142858,-97.23863413678217
         1267.7142857142858,-109.73863413678217
         1126.857142857143,-109.73863413678217
      "></path><path d="
        M1690.2857142857142,-87.23863413678217
        C1267.7142857142858,-87.23863413678217
         1267.7142857142858,-109.73863413678217
         1126.857142857143,-109.73863413678217
      "></path><path d="
        M1690.2857142857142,-67.23863413678217
        C1549.4285714285716,-67.23863413678217
         1549.4285714285716,-67.23863413678217
         1408.5714285714287,-67.23863413678217
      "></path><path d="
        M1408.5714285714287,-17.238634136782167
        C1267.7142857142858,-17.238634136782167
         1267.7142857142858,-7.238634136782167
         1126.857142857143,-7.238634136782167
      "></path><path d="
        M1690.2857142857142,2.761365863217833
        C1267.7142857142858,2.761365863217833
         1267.7142857142858,-7.238634136782167
         1126.857142857143,-7.238634136782167
      "></path><path d="
        M1690.2857142857142,22.761365863217833
        C1549.4285714285716,22.761365863217833
         1549.4285714285716,22.761365863217833
         1408.5714285714287,22.761365863217833
      "></path><path d="
        M1690.2857142857142,42.76136586321783
        C1549.4285714285716,42.76136586321783
         1549.4285714285716,42.76136586321783
         1408.5714285714287,42.76136586321783
      "></path><path d="
        M1690.2857142857142,62.76136586321783
        C1549.4285714285716,62.76136586321783
         1549.4285714285716,62.76136586321783
         1408.5714285714287,62.76136586321783
      "></path><path d="
        M1408.5714285714287,-1027.2386341367821
        C1267.7142857142858,-1027.2386341367821
         1267.7142857142858,-999.7386341367821
         1126.857142857143,-999.7386341367821
      "></path><path d="
        M1408.5714285714287,-1007.2386341367821
        C1267.7142857142858,-1007.2386341367821
         1267.7142857142858,-999.7386341367821
         1126.857142857143,-999.7386341367821
      "></path><path d="
        M1690.2857142857142,-987.2386341367821
        C1267.7142857142858,-987.2386341367821
         1267.7142857142858,-999.7386341367821
         1126.857142857143,-999.7386341367821
      "></path><path d="
        M1690.2857142857142,-977.2386341367821
        C1267.7142857142858,-977.2386341367821
         1267.7142857142858,-999.7386341367821
         1126.857142857143,-999.7386341367821
      "></path><path d="
        M1690.2857142857142,-927.2386341367821
        C1549.4285714285716,-927.2386341367821
         1549.4285714285716,-922.2386341367821
         1408.5714285714287,-922.2386341367821
      "></path><path d="
        M1690.2857142857142,-917.2386341367821
        C1549.4285714285716,-917.2386341367821
         1549.4285714285716,-922.2386341367821
         1408.5714285714287,-922.2386341367821
      "></path><path d="
        M1690.2857142857142,-867.2386341367821
        C1549.4285714285716,-867.2386341367821
         1549.4285714285716,-867.2386341367821
         1408.5714285714287,-867.2386341367821
      "></path><path d="
        M1690.2857142857142,-187.23863413678217
        C1549.4285714285716,-187.23863413678217
         1549.4285714285716,-187.23863413678217
         1408.5714285714287,-187.23863413678217
      "></path><path d="
        M1690.2857142857142,-137.23863413678217
        C1549.4285714285716,-137.23863413678217
         1549.4285714285716,-137.23863413678217
         1408.5714285714287,-137.23863413678217
      "></path><path d="
        M1690.2857142857142,-117.23863413678217
        C1549.4285714285716,-117.23863413678217
         1549.4285714285716,-117.23863413678217
         1408.5714285714287,-117.23863413678217
      "></path><path d="
        M1690.2857142857142,-17.238634136782167
        C1549.4285714285716,-17.238634136782167
         1549.4285714285716,-17.238634136782167
         1408.5714285714287,-17.238634136782167
      "></path><path d="
        M1690.2857142857142,-1027.2386341367821
        C1549.4285714285716,-1027.2386341367821
         1549.4285714285716,-1027.2386341367821
         1408.5714285714287,-1027.2386341367821
      "></path><path d="
        M1690.2857142857142,-1007.2386341367821
        C1549.4285714285716,-1007.2386341367821
         1549.4285714285716,-1007.2386341367821
         1408.5714285714287,-1007.2386341367821
      "></path></g><g><circle cx="0" cy="0" fill="#555" r="2.5"></circle><circle cx="281.7142857142857" cy="-303.05910738781097" fill="#555" r="2.5"></circle><circle cx="563.4285714285714" cy="90.29774152459353" fill="#555" r="2.5"></circle><circle cx="1126.857142857143" cy="212.76136586321783" fill="#555" r="2.5"></circle><circle cx="563.4285714285714" cy="-594.6228933960414" fill="#555" r="2.5"></circle><circle cx="1126.857142857143" cy="-377.23863413678214" fill="#555" r="2.5"></circle><circle cx="1408.5714285714287" cy="-337.23863413678214" fill="#555" r="2.5"></circle><circle cx="1408.5714285714287" cy="-282.23863413678214" fill="#555" r="2.5"></circle><circle cx="1690.2857142857142" cy="-247.23863413678217" fill="#999" r="2.5"></circle><circle cx="1690.2857142857142" cy="-237.23863413678217" fill="#999" r="2.5"></circle><circle cx="1690.2857142857142" cy="-227.23863413678217" fill="#999" r="2.5"></circle><circle cx="1690.2857142857142" cy="-217.23863413678217" fill="#999" r="2.5"></circle><circle cx="1690.2857142857142" cy="-207.23863413678217" fill="#999" r="2.5"></circle><circle cx="845.1428571428571" cy="-170.57196747011545" fill="#555" r="2.5"></circle><circle cx="845.1428571428571" cy="-65.36363413678217" fill="#555" r="2.5"></circle><circle cx="845.1428571428571" cy="57.04708014893214" fill="#555" r="2.5"></circle><circle cx="1408.5714285714287" cy="127.76136586321783" fill="#555" r="2.5"></circle><circle cx="1690.2857142857142" cy="152.76136586321783" fill="#999" r="2.5"></circle><circle cx="1690.2857142857142" cy="162.76136586321783" fill="#999" r="2.5"></circle><circle cx="1690.2857142857142" cy="172.76136586321783" fill="#999" r="2.5"></circle><circle cx="1690.2857142857142" cy="182.76136586321783" fill="#999" r="2.5"></circle><circle cx="1690.2857142857142" cy="192.76136586321783" fill="#999" r="2.5"></circle><circle cx="1408.5714285714287" cy="212.76136586321783" fill="#555" r="2.5"></circle><circle cx="845.1428571428571" cy="-968.0719674701154" fill="#555" r="2.5"></circle><circle cx="1126.857142857143" cy="-902.2386341367821" fill="#555" r="2.5"></circle><circle cx="1126.857142857143" cy="-867.2386341367821" fill="#555" r="2.5"></circle><circle cx="1408.5714285714287" cy="-847.2386341367821" fill="#555" r="2.5"></circle><circle cx="1408.5714285714287" cy="-792.2386341367821" fill="#555" r="2.5"></circle><circle cx="1408.5714285714287" cy="-732.2386341367821" fill="#555" r="2.5"></circle><circle cx="1408.5714285714287" cy="-707.2386341367821" fill="#555" r="2.5"></circle><circle cx="1408.5714285714287" cy="-687.2386341367821" fill="#555" r="2.5"></circle><circle cx="1690.2857142857142" cy="-667.2386341367821" fill="#999" r="2.5"></circle><circle cx="1690.2857142857142" cy="-657.2386341367821" fill="#999" r="2.5"></circle><circle cx="1690.2857142857142" cy="-647.2386341367821" fill="#999" r="2.5"></circle><circle cx="1690.2857142857142" cy="-637.2386341367821" fill="#999" r="2.5"></circle><circle cx="1690.2857142857142" cy="-627.2386341367821" fill="#999" r="2.5"></circle><circle cx="1690.2857142857142" cy="-617.2386341367821" fill="#999" r="2.5"></circle><circle cx="1690.2857142857142" cy="-607.2386341367821" fill="#999" r="2.5"></circle><circle cx="1690.2857142857142" cy="-597.2386341367821" fill="#999" r="2.5"></circle><circle cx="1690.2857142857142" cy="-587.2386341367821" fill="#999" r="2.5"></circle><circle cx="1690.2857142857142" cy="-577.2386341367821" fill="#999" r="2.5"></circle><circle cx="1690.2857142857142" cy="-567.2386341367821" fill="#999" r="2.5"></circle><circle cx="1690.2857142857142" cy="-557.2386341367821" fill="#999" r="2.5"></circle><circle cx="1690.2857142857142" cy="-547.2386341367821" fill="#999" r="2.5"></circle><circle cx="1690.2857142857142" cy="-537.2386341367821" fill="#999" r="2.5"></circle><circle cx="1690.2857142857142" cy="-527.2386341367821" fill="#999" r="2.5"></circle><circle cx="1690.2857142857142" cy="-517.2386341367821" fill="#999" r="2.5"></circle><circle cx="1690.2857142857142" cy="-507.23863413678214" fill="#999" r="2.5"></circle><circle cx="1690.2857142857142" cy="-497.23863413678214" fill="#999" r="2.5"></circle><circle cx="1690.2857142857142" cy="-487.23863413678214" fill="#999" r="2.5"></circle><circle cx="1690.2857142857142" cy="-477.23863413678214" fill="#999" r="2.5"></circle><circle cx="1690.2857142857142" cy="-467.23863413678214" fill="#999" r="2.5"></circle><circle cx="1690.2857142857142" cy="-457.23863413678214" fill="#999" r="2.5"></circle><circle cx="1690.2857142857142" cy="-447.23863413678214" fill="#999" r="2.5"></circle><circle cx="1690.2857142857142" cy="-437.23863413678214" fill="#999" r="2.5"></circle><circle cx="1690.2857142857142" cy="-427.23863413678214" fill="#999" r="2.5"></circle><circle cx="1690.2857142857142" cy="-417.23863413678214" fill="#999" r="2.5"></circle><circle cx="1690.2857142857142" cy="-407.23863413678214" fill="#999" r="2.5"></circle><circle cx="1690.2857142857142" cy="-397.23863413678214" fill="#999" r="2.5"></circle><circle cx="1408.5714285714287" cy="-377.23863413678214" fill="#555" r="2.5"></circle><circle cx="1690.2857142857142" cy="-357.23863413678214" fill="#999" r="2.5"></circle><circle cx="1690.2857142857142" cy="-347.23863413678214" fill="#999" r="2.5"></circle><circle cx="1690.2857142857142" cy="-337.23863413678214" fill="#999" r="2.5"></circle><circle cx="1690.2857142857142" cy="-327.23863413678214" fill="#999" r="2.5"></circle><circle cx="1690.2857142857142" cy="-317.23863413678214" fill="#999" r="2.5"></circle><circle cx="1690.2857142857142" cy="-297.23863413678214" fill="#999" r="2.5"></circle><circle cx="1690.2857142857142" cy="-287.23863413678214" fill="#999" r="2.5"></circle><circle cx="1690.2857142857142" cy="-277.23863413678214" fill="#999" r="2.5"></circle><circle cx="1690.2857142857142" cy="-267.23863413678214" fill="#999" r="2.5"></circle><circle cx="1126.857142857143" cy="-187.23863413678217" fill="#555" r="2.5"></circle><circle cx="1690.2857142857142" cy="-167.23863413678217" fill="#999" r="2.5"></circle><circle cx="1690.2857142857142" cy="-157.23863413678217" fill="#999" r="2.5"></circle><circle cx="1126.857142857143" cy="-109.73863413678217" fill="#555" r="2.5"></circle><circle cx="1408.5714285714287" cy="-67.23863413678217" fill="#555" r="2.5"></circle><circle cx="1690.2857142857142" cy="-47.23863413678217" fill="#999" r="2.5"></circle><circle cx="1690.2857142857142" cy="-37.23863413678217" fill="#999" r="2.5"></circle><circle cx="1126.857142857143" cy="-7.238634136782167" fill="#555" r="2.5"></circle><circle cx="1408.5714285714287" cy="22.761365863217833" fill="#555" r="2.5"></circle><circle cx="1408.5714285714287" cy="42.76136586321783" fill="#555" r="2.5"></circle><circle cx="1408.5714285714287" cy="62.76136586321783" fill="#555" r="2.5"></circle><circle cx="1690.2857142857142" cy="82.76136586321783" fill="#999" r="2.5"></circle><circle cx="1690.2857142857142" cy="92.76136586321783" fill="#999" r="2.5"></circle><circle cx="1690.2857142857142" cy="102.76136586321783" fill="#999" r="2.5"></circle><circle cx="1690.2857142857142" cy="122.76136586321783" fill="#999" r="2.5"></circle><circle cx="1690.2857142857142" cy="132.76136586321783" fill="#999" r="2.5"></circle><circle cx="1690.2857142857142" cy="212.76136586321783" fill="#999" r="2.5"></circle><circle cx="1126.857142857143" cy="-999.7386341367821" fill="#555" r="2.5"></circle><circle cx="1690.2857142857142" cy="-957.2386341367821" fill="#999" r="2.5"></circle><circle cx="1690.2857142857142" cy="-947.2386341367821" fill="#999" r="2.5"></circle><circle cx="1408.5714285714287" cy="-922.2386341367821" fill="#555" r="2.5"></circle><circle cx="1690.2857142857142" cy="-897.2386341367821" fill="#999" r="2.5"></circle><circle cx="1690.2857142857142" cy="-887.2386341367821" fill="#999" r="2.5"></circle><circle cx="1408.5714285714287" cy="-867.2386341367821" fill="#555" r="2.5"></circle><circle cx="1690.2857142857142" cy="-847.2386341367821" fill="#999" r="2.5"></circle><circle cx="1690.2857142857142" cy="-827.2386341367821" fill="#999" r="2.5"></circle><circle cx="1690.2857142857142" cy="-817.2386341367821" fill="#999" r="2.5"></circle><circle cx="1690.2857142857142" cy="-807.2386341367821" fill="#999" r="2.5"></circle><circle cx="1690.2857142857142" cy="-797.2386341367821" fill="#999" r="2.5"></circle><circle cx="1690.2857142857142" cy="-787.2386341367821" fill="#999" r="2.5"></circle><circle cx="1690.2857142857142" cy="-777.2386341367821" fill="#999" r="2.5"></circle><circle cx="1690.2857142857142" cy="-767.2386341367821" fill="#999" r="2.5"></circle><circle cx="1690.2857142857142" cy="-757.2386341367821" fill="#999" r="2.5"></circle><circle cx="1690.2857142857142" cy="-737.2386341367821" fill="#999" r="2.5"></circle><circle cx="1690.2857142857142" cy="-727.2386341367821" fill="#999" r="2.5"></circle><circle cx="1690.2857142857142" cy="-707.2386341367821" fill="#999" r="2.5"></circle><circle cx="1690.2857142857142" cy="-687.2386341367821" fill="#999" r="2.5"></circle><circle cx="1690.2857142857142" cy="-377.23863413678214" fill="#999" r="2.5"></circle><circle cx="1408.5714285714287" cy="-187.23863413678217" fill="#555" r="2.5"></circle><circle cx="1408.5714285714287" cy="-137.23863413678217" fill="#555" r="2.5"></circle><circle cx="1408.5714285714287" cy="-117.23863413678217" fill="#555" r="2.5"></circle><circle cx="1690.2857142857142" cy="-97.23863413678217" fill="#999" r="2.5"></circle><circle cx="1690.2857142857142" cy="-87.23863413678217" fill="#999" r="2.5"></circle><circle cx="1690.2857142857142" cy="-67.23863413678217" fill="#999" r="2.5"></circle><circle cx="1408.5714285714287" cy="-17.238634136782167" fill="#555" r="2.5"></circle><circle cx="1690.2857142857142" cy="2.761365863217833" fill="#999" r="2.5"></circle><circle cx="1690.2857142857142" cy="22.761365863217833" fill="#999" r="2.5"></circle><circle cx="1690.2857142857142" cy="42.76136586321783" fill="#999" r="2.5"></circle><circle cx="1690.2857142857142" cy="62.76136586321783" fill="#999" r="2.5"></circle><circle cx="1408.5714285714287" cy="-1027.2386341367821" fill="#555" r="2.5"></circle><circle cx="1408.5714285714287" cy="-1007.2386341367821" fill="#555" r="2.5"></circle><circle cx="1690.2857142857142" cy="-987.2386341367821" fill="#999" r="2.5"></circle><circle cx="1690.2857142857142" cy="-977.2386341367821" fill="#999" r="2.5"></circle><circle cx="1690.2857142857142" cy="-927.2386341367821" fill="#999" r="2.5"></circle><circle cx="1690.2857142857142" cy="-917.2386341367821" fill="#999" r="2.5"></circle><circle cx="1690.2857142857142" cy="-867.2386341367821" fill="#999" r="2.5"></circle><circle cx="1690.2857142857142" cy="-187.23863413678217" fill="#999" r="2.5"></circle><circle cx="1690.2857142857142" cy="-137.23863413678217" fill="#999" r="2.5"></circle><circle cx="1690.2857142857142" cy="-117.23863413678217" fill="#999" r="2.5"></circle><circle cx="1690.2857142857142" cy="-17.238634136782167" fill="#999" r="2.5"></circle><circle cx="1690.2857142857142" cy="-1027.2386341367821" fill="#999" r="2.5"></circle><circle cx="1690.2857142857142" cy="-1007.2386341367821" fill="#999" r="2.5"></circle></g><g font-family="sans-serif" font-size="10" stroke-linejoin="round" stroke-width="3"><text x="1408.5714285714287" y="-1007.2386341367821" dy="0.31em" dx="-6" text-anchor="end" stroke="white">tree</text><text x="1408.5714285714287" y="-1027.2386341367821" dy="0.31em" dx="-6" text-anchor="end" stroke="white">menu</text><text x="1408.5714285714287" y="-17.238634136782167" dy="0.31em" dx="-6" text-anchor="end" stroke="white">menuitemcheckbox</text><text x="1408.5714285714287" y="-117.23863413678217" dy="0.31em" dx="-6" text-anchor="end" stroke="white">tree</text><text x="1408.5714285714287" y="-137.23863413678217" dy="0.31em" dx="-6" text-anchor="end" stroke="white">menu</text><text x="1408.5714285714287" y="-187.23863413678217" dy="0.31em" dx="-6" text-anchor="end" stroke="white">menuitemcheckbox</text><text x="1408.5714285714287" y="-867.2386341367821" dy="0.31em" dx="-6" text-anchor="end" stroke="white">grid</text><text x="1408.5714285714287" y="-922.2386341367821" dy="0.31em" dx="-6" text-anchor="end" stroke="white">gridcell</text><text x="1126.857142857143" y="-999.7386341367821" dy="0.31em" dx="-6" text-anchor="end" stroke="white">select</text><text x="1408.5714285714287" y="62.76136586321783" dy="0.31em" dx="-6" text-anchor="end" stroke="white">textbox</text><text x="1408.5714285714287" y="42.76136586321783" dy="0.31em" dx="-6" text-anchor="end" stroke="white">radio</text><text x="1408.5714285714287" y="22.761365863217833" dy="0.31em" dx="-6" text-anchor="end" stroke="white">option</text><text x="1126.857142857143" y="-7.238634136782167" dy="0.31em" dx="-6" text-anchor="end" stroke="white">checkbox</text><text x="1408.5714285714287" y="-67.23863413678217" dy="0.31em" dx="-6" text-anchor="end" stroke="white">grid</text><text x="1126.857142857143" y="-109.73863413678217" dy="0.31em" dx="-6" text-anchor="end" stroke="white">select</text><text x="1126.857142857143" y="-187.23863413678217" dy="0.31em" dx="-6" text-anchor="end" stroke="white">menuitem</text><text x="1408.5714285714287" y="-377.23863413678214" dy="0.31em" dx="-6" text-anchor="end" stroke="white">article</text><text x="1408.5714285714287" y="-687.2386341367821" dy="0.31em" dx="-6" text-anchor="end" stroke="white">status</text><text x="1408.5714285714287" y="-707.2386341367821" dy="0.31em" dx="-6" text-anchor="end" stroke="white">listitem</text><text x="1408.5714285714287" y="-732.2386341367821" dy="0.31em" dx="-6" text-anchor="end" stroke="white">list</text><text x="1408.5714285714287" y="-792.2386341367821" dy="0.31em" dx="-6" text-anchor="end" stroke="white">landmark</text><text x="1408.5714285714287" y="-847.2386341367821" dy="0.31em" dx="-6" text-anchor="end" stroke="white">alert</text><text x="1126.857142857143" y="-867.2386341367821" dy="0.31em" dx="-6" text-anchor="end" stroke="white">table</text><text x="1126.857142857143" y="-902.2386341367821" dy="0.31em" dx="-6" text-anchor="end" stroke="white">cell</text><text x="845.1428571428571" y="-968.0719674701154" dy="0.31em" dx="-6" text-anchor="end" stroke="white">group</text><text x="1408.5714285714287" y="212.76136586321783" dy="0.31em" dx="-6" text-anchor="end" stroke="white">dialog</text><text x="1408.5714285714287" y="127.76136586321783" dy="0.31em" dx="-6" text-anchor="end" stroke="white">gridcell</text><text x="845.1428571428571" y="57.04708014893214" dy="0.31em" dx="-6" text-anchor="end" stroke="white">input</text><text x="845.1428571428571" y="-65.36363413678217" dy="0.31em" dx="-6" text-anchor="end" stroke="white">composite</text><text x="845.1428571428571" y="-170.57196747011545" dy="0.31em" dx="-6" text-anchor="end" stroke="white">command</text><text x="1408.5714285714287" y="-282.23863413678214" dy="0.31em" dx="-6" text-anchor="end" stroke="white">sectionhead</text><text x="1408.5714285714287" y="-337.23863413678214" dy="0.31em" dx="-6" text-anchor="end" stroke="white">range</text><text x="1126.857142857143" y="-377.23863413678214" dy="0.31em" dx="-6" text-anchor="end" stroke="white">document</text><text x="563.4285714285714" y="-594.6228933960414" dy="0.31em" dx="-6" text-anchor="end" stroke="white">section</text><text x="1126.857142857143" y="212.76136586321783" dy="0.31em" dx="-6" text-anchor="end" stroke="white">window</text><text x="563.4285714285714" y="90.29774152459353" dy="0.31em" dx="-6" text-anchor="end" stroke="white">widget</text><text x="281.7142857142857" y="-303.05910738781097" dy="0.31em" dx="-6" text-anchor="end" stroke="white">structure</text><text x="0" y="0" dy="0.31em" dx="-6" text-anchor="end" stroke="white">roletype</text><text x="0" y="0" dy="0.31em" dx="-6" text-anchor="end">roletype</text><text x="281.7142857142857" y="-303.05910738781097" dy="0.31em" dx="-6" text-anchor="end">structure</text><text x="563.4285714285714" y="90.29774152459353" dy="0.31em" dx="-6" text-anchor="end">widget</text><text x="1126.857142857143" y="212.76136586321783" dy="0.31em" dx="-6" text-anchor="end">window</text><text x="563.4285714285714" y="-594.6228933960414" dy="0.31em" dx="-6" text-anchor="end">section</text><text x="1126.857142857143" y="-377.23863413678214" dy="0.31em" dx="-6" text-anchor="end">document</text><text x="1408.5714285714287" y="-337.23863413678214" dy="0.31em" dx="-6" text-anchor="end">range</text><text x="1408.5714285714287" y="-282.23863413678214" dy="0.31em" dx="-6" text-anchor="end">sectionhead</text><text x="1690.2857142857142" y="-247.23863413678217" dy="0.31em" dx="6">application</text><text x="1690.2857142857142" y="-237.23863413678217" dy="0.31em" dx="6">generic</text><text x="1690.2857142857142" y="-227.23863413678217" dy="0.31em" dx="6">presentation</text><text x="1690.2857142857142" y="-217.23863413678217" dy="0.31em" dx="6">rowgroup</text><text x="1690.2857142857142" y="-207.23863413678217" dy="0.31em" dx="6">separator</text><text x="845.1428571428571" y="-170.57196747011545" dy="0.31em" dx="-6" text-anchor="end">command</text><text x="845.1428571428571" y="-65.36363413678217" dy="0.31em" dx="-6" text-anchor="end">composite</text><text x="845.1428571428571" y="57.04708014893214" dy="0.31em" dx="-6" text-anchor="end">input</text><text x="1408.5714285714287" y="127.76136586321783" dy="0.31em" dx="-6" text-anchor="end">gridcell</text><text x="1690.2857142857142" y="152.76136586321783" dy="0.31em" dx="6">progressbar</text><text x="1690.2857142857142" y="162.76136586321783" dy="0.31em" dx="6">row</text><text x="1690.2857142857142" y="172.76136586321783" dy="0.31em" dx="6">scrollbar</text><text x="1690.2857142857142" y="182.76136586321783" dy="0.31em" dx="6">separator</text><text x="1690.2857142857142" y="192.76136586321783" dy="0.31em" dx="6">tab</text><text x="1408.5714285714287" y="212.76136586321783" dy="0.31em" dx="-6" text-anchor="end">dialog</text><text x="845.1428571428571" y="-968.0719674701154" dy="0.31em" dx="-6" text-anchor="end">group</text><text x="1126.857142857143" y="-902.2386341367821" dy="0.31em" dx="-6" text-anchor="end">cell</text><text x="1126.857142857143" y="-867.2386341367821" dy="0.31em" dx="-6" text-anchor="end">table</text><text x="1408.5714285714287" y="-847.2386341367821" dy="0.31em" dx="-6" text-anchor="end">alert</text><text x="1408.5714285714287" y="-792.2386341367821" dy="0.31em" dx="-6" text-anchor="end">landmark</text><text x="1408.5714285714287" y="-732.2386341367821" dy="0.31em" dx="-6" text-anchor="end">list</text><text x="1408.5714285714287" y="-707.2386341367821" dy="0.31em" dx="-6" text-anchor="end">listitem</text><text x="1408.5714285714287" y="-687.2386341367821" dy="0.31em" dx="-6" text-anchor="end">status</text><text x="1690.2857142857142" y="-667.2386341367821" dy="0.31em" dx="6">associationlist</text><text x="1690.2857142857142" y="-657.2386341367821" dy="0.31em" dx="6">associationlistitemkey</text><text x="1690.2857142857142" y="-647.2386341367821" dy="0.31em" dx="6">associationlistitemvalue</text><text x="1690.2857142857142" y="-637.2386341367821" dy="0.31em" dx="6">blockquote</text><text x="1690.2857142857142" y="-627.2386341367821" dy="0.31em" dx="6">caption</text><text x="1690.2857142857142" y="-617.2386341367821" dy="0.31em" dx="6">code</text><text x="1690.2857142857142" y="-607.2386341367821" dy="0.31em" dx="6">definition</text><text x="1690.2857142857142" y="-597.2386341367821" dy="0.31em" dx="6">deletion</text><text x="1690.2857142857142" y="-587.2386341367821" dy="0.31em" dx="6">emphasis</text><text x="1690.2857142857142" y="-577.2386341367821" dy="0.31em" dx="6">figure</text><text x="1690.2857142857142" y="-567.2386341367821" dy="0.31em" dx="6">img</text><text x="1690.2857142857142" y="-557.2386341367821" dy="0.31em" dx="6">insertion</text><text x="1690.2857142857142" y="-547.2386341367821" dy="0.31em" dx="6">label</text><text x="1690.2857142857142" y="-537.2386341367821" dy="0.31em" dx="6">legend</text><text x="1690.2857142857142" y="-527.2386341367821" dy="0.31em" dx="6">log</text><text x="1690.2857142857142" y="-517.2386341367821" dy="0.31em" dx="6">mark</text><text x="1690.2857142857142" y="-507.23863413678214" dy="0.31em" dx="6">marquee</text><text x="1690.2857142857142" y="-497.23863413678214" dy="0.31em" dx="6">math</text><text x="1690.2857142857142" y="-487.23863413678214" dy="0.31em" dx="6">note</text><text x="1690.2857142857142" y="-477.23863413678214" dy="0.31em" dx="6">paragraph</text><text x="1690.2857142857142" y="-467.23863413678214" dy="0.31em" dx="6">strong</text><text x="1690.2857142857142" y="-457.23863413678214" dy="0.31em" dx="6">subscript</text><text x="1690.2857142857142" y="-447.23863413678214" dy="0.31em" dx="6">suggestion</text><text x="1690.2857142857142" y="-437.23863413678214" dy="0.31em" dx="6">superscript</text><text x="1690.2857142857142" y="-427.23863413678214" dy="0.31em" dx="6">tabpanel</text><text x="1690.2857142857142" y="-417.23863413678214" dy="0.31em" dx="6">term</text><text x="1690.2857142857142" y="-407.23863413678214" dy="0.31em" dx="6">time</text><text x="1690.2857142857142" y="-397.23863413678214" dy="0.31em" dx="6">tooltip</text><text x="1408.5714285714287" y="-377.23863413678214" dy="0.31em" dx="-6" text-anchor="end">article</text><text x="1690.2857142857142" y="-357.23863413678214" dy="0.31em" dx="6">meter</text><text x="1690.2857142857142" y="-347.23863413678214" dy="0.31em" dx="6">progressbar</text><text x="1690.2857142857142" y="-337.23863413678214" dy="0.31em" dx="6">scrollbar</text><text x="1690.2857142857142" y="-327.23863413678214" dy="0.31em" dx="6">slider</text><text x="1690.2857142857142" y="-317.23863413678214" dy="0.31em" dx="6">spinbutton</text><text x="1690.2857142857142" y="-297.23863413678214" dy="0.31em" dx="6">columnheader</text><text x="1690.2857142857142" y="-287.23863413678214" dy="0.31em" dx="6">heading</text><text x="1690.2857142857142" y="-277.23863413678214" dy="0.31em" dx="6">rowheader</text><text x="1690.2857142857142" y="-267.23863413678214" dy="0.31em" dx="6">tab</text><text x="1126.857142857143" y="-187.23863413678217" dy="0.31em" dx="-6" text-anchor="end">menuitem</text><text x="1690.2857142857142" y="-167.23863413678217" dy="0.31em" dx="6">button</text><text x="1690.2857142857142" y="-157.23863413678217" dy="0.31em" dx="6">link</text><text x="1126.857142857143" y="-109.73863413678217" dy="0.31em" dx="-6" text-anchor="end">select</text><text x="1408.5714285714287" y="-67.23863413678217" dy="0.31em" dx="-6" text-anchor="end">grid</text><text x="1690.2857142857142" y="-47.23863413678217" dy="0.31em" dx="6">spinbutton</text><text x="1690.2857142857142" y="-37.23863413678217" dy="0.31em" dx="6">tablist</text><text x="1126.857142857143" y="-7.238634136782167" dy="0.31em" dx="-6" text-anchor="end">checkbox</text><text x="1408.5714285714287" y="22.761365863217833" dy="0.31em" dx="-6" text-anchor="end">option</text><text x="1408.5714285714287" y="42.76136586321783" dy="0.31em" dx="-6" text-anchor="end">radio</text><text x="1408.5714285714287" y="62.76136586321783" dy="0.31em" dx="-6" text-anchor="end">textbox</text><text x="1690.2857142857142" y="82.76136586321783" dy="0.31em" dx="6">combobox</text><text x="1690.2857142857142" y="92.76136586321783" dy="0.31em" dx="6">slider</text><text x="1690.2857142857142" y="102.76136586321783" dy="0.31em" dx="6">spinbutton</text><text x="1690.2857142857142" y="122.76136586321783" dy="0.31em" dx="6">columnheader</text><text x="1690.2857142857142" y="132.76136586321783" dy="0.31em" dx="6">rowheader</text><text x="1690.2857142857142" y="212.76136586321783" dy="0.31em" dx="6">alertdialog</text><text x="1126.857142857143" y="-999.7386341367821" dy="0.31em" dx="-6" text-anchor="end">select</text><text x="1690.2857142857142" y="-957.2386341367821" dy="0.31em" dx="6">row</text><text x="1690.2857142857142" y="-947.2386341367821" dy="0.31em" dx="6">toolbar</text><text x="1408.5714285714287" y="-922.2386341367821" dy="0.31em" dx="-6" text-anchor="end">gridcell</text><text x="1690.2857142857142" y="-897.2386341367821" dy="0.31em" dx="6">columnheader</text><text x="1690.2857142857142" y="-887.2386341367821" dy="0.31em" dx="6">rowheader</text><text x="1408.5714285714287" y="-867.2386341367821" dy="0.31em" dx="-6" text-anchor="end">grid</text><text x="1690.2857142857142" y="-847.2386341367821" dy="0.31em" dx="6">alertdialog</text><text x="1690.2857142857142" y="-827.2386341367821" dy="0.31em" dx="6">banner</text><text x="1690.2857142857142" y="-817.2386341367821" dy="0.31em" dx="6">complementary</text><text x="1690.2857142857142" y="-807.2386341367821" dy="0.31em" dx="6">contentinfo</text><text x="1690.2857142857142" y="-797.2386341367821" dy="0.31em" dx="6">form</text><text x="1690.2857142857142" y="-787.2386341367821" dy="0.31em" dx="6">main</text><text x="1690.2857142857142" y="-777.2386341367821" dy="0.31em" dx="6">navigation</text><text x="1690.2857142857142" y="-767.2386341367821" dy="0.31em" dx="6">region</text><text x="1690.2857142857142" y="-757.2386341367821" dy="0.31em" dx="6">search</text><text x="1690.2857142857142" y="-737.2386341367821" dy="0.31em" dx="6">directory</text><text x="1690.2857142857142" y="-727.2386341367821" dy="0.31em" dx="6">feed</text><text x="1690.2857142857142" y="-707.2386341367821" dy="0.31em" dx="6">treeitem</text><text x="1690.2857142857142" y="-687.2386341367821" dy="0.31em" dx="6">timer</text><text x="1690.2857142857142" y="-377.23863413678214" dy="0.31em" dx="6">comment</text><text x="1408.5714285714287" y="-187.23863413678217" dy="0.31em" dx="-6" text-anchor="end">menuitemcheckbox</text><text x="1408.5714285714287" y="-137.23863413678217" dy="0.31em" dx="-6" text-anchor="end">menu</text><text x="1408.5714285714287" y="-117.23863413678217" dy="0.31em" dx="-6" text-anchor="end">tree</text><text x="1690.2857142857142" y="-97.23863413678217" dy="0.31em" dx="6">listbox</text><text x="1690.2857142857142" y="-87.23863413678217" dy="0.31em" dx="6">radiogroup</text><text x="1690.2857142857142" y="-67.23863413678217" dy="0.31em" dx="6">treegrid</text><text x="1408.5714285714287" y="-17.238634136782167" dy="0.31em" dx="-6" text-anchor="end">menuitemcheckbox</text><text x="1690.2857142857142" y="2.761365863217833" dy="0.31em" dx="6">switch</text><text x="1690.2857142857142" y="22.761365863217833" dy="0.31em" dx="6">treeitem</text><text x="1690.2857142857142" y="42.76136586321783" dy="0.31em" dx="6">menuitemradio</text><text x="1690.2857142857142" y="62.76136586321783" dy="0.31em" dx="6">searchbox</text><text x="1408.5714285714287" y="-1027.2386341367821" dy="0.31em" dx="-6" text-anchor="end">menu</text><text x="1408.5714285714287" y="-1007.2386341367821" dy="0.31em" dx="-6" text-anchor="end">tree</text><text x="1690.2857142857142" y="-987.2386341367821" dy="0.31em" dx="6">listbox</text><text x="1690.2857142857142" y="-977.2386341367821" dy="0.31em" dx="6">radiogroup</text><text x="1690.2857142857142" y="-927.2386341367821" dy="0.31em" dx="6">columnheader</text><text x="1690.2857142857142" y="-917.2386341367821" dy="0.31em" dx="6">rowheader</text><text x="1690.2857142857142" y="-867.2386341367821" dy="0.31em" dx="6">treegrid</text><text x="1690.2857142857142" y="-187.23863413678217" dy="0.31em" dx="6">menuitemradio</text><text x="1690.2857142857142" y="-137.23863413678217" dy="0.31em" dx="6">menubar</text><text x="1690.2857142857142" y="-117.23863413678217" dy="0.31em" dx="6">treegrid</text><text x="1690.2857142857142" y="-17.238634136782167" dy="0.31em" dx="6">menuitemradio</text><text x="1690.2857142857142" y="-1027.2386341367821" dy="0.31em" dx="6">menubar</text><text x="1690.2857142857142" y="-1007.2386341367821" dy="0.31em" dx="6">treegrid</text></g></svg>
